<?xml version="1.0" encoding="UTF-8"?>
<svg version="1.1" xmlns="http://www.w3.org/2000/svg" width="250" height="296">
<path d="M0 0 C2.83851813 0.00912863 5.67620887 0.00239541 8.51464844 -0.02050781 C34.45693608 -0.2284924 59.29396362 1.82761505 84.18896484 9.75415039 C86.24659102 10.39537676 88.30869597 10.98354608 90.38964844 11.54370117 C100.30453561 14.21434145 109.49004094 17.87430056 118.59277344 22.60620117 C120.46946176 23.47391728 122.28755421 24.04216466 124.28417969 24.57104492 C127.40917969 25.44604492 127.40917969 25.44604492 129.40917969 27.44604492 C129.66644859 30.28398991 129.66644859 30.28398991 129.67660522 33.98805237 C129.68113634 34.66788695 129.68566745 35.34772153 129.69033587 36.04815716 C129.70304669 38.33783695 129.70135514 40.6272809 129.69970703 42.91699219 C129.70568888 44.55471098 129.71249363 46.19242694 129.72006226 47.83013916 C129.73778307 52.29177866 129.74242071 56.7533415 129.74369383 61.21501279 C129.74511469 64.0075512 129.74938348 66.80007011 129.75468826 69.59260368 C129.77322172 79.35097362 129.78135637 89.10928883 129.77978516 98.86767578 C129.77858886 107.9333537 129.79958145 116.99879155 129.83127248 126.06440884 C129.85755385 133.86338775 129.86814723 141.66228898 129.86687434 149.46131176 C129.86636737 154.11151128 129.87190001 158.76149846 129.89323044 163.41165352 C129.91280852 167.80055288 129.91260582 172.18904206 129.89819717 176.57795715 C129.89613065 178.17531888 129.90067855 179.77270756 129.91291809 181.37002373 C130.01416427 195.51859208 128.38573566 209.91322227 121.15917969 222.38354492 C120.77221924 223.08390869 120.38525879 223.78427246 119.98657227 224.50585938 C117.14270791 229.51752581 113.89269616 234.04473848 110.13183594 238.41870117 C108.58604602 240.23789611 107.29820584 242.05140166 106.03417969 244.07104492 C105.49792969 244.85479492 104.96167969 245.63854492 104.40917969 246.44604492 C103.74917969 246.44604492 103.08917969 246.44604492 102.40917969 246.44604492 C102.40917969 247.10604492 102.40917969 247.76604492 102.40917969 248.44604492 C99.77025793 250.22910017 97.43739105 251.43664113 94.40917969 252.44604492 C94.40917969 253.10604492 94.40917969 253.76604492 94.40917969 254.44604492 C87.65917969 258.44604492 87.65917969 258.44604492 85.40917969 258.44604492 C85.40917969 259.10604492 85.40917969 259.76604492 85.40917969 260.44604492 C83.47167969 261.75073242 83.47167969 261.75073242 80.40917969 263.44604492 C78.99225829 264.26070621 77.57561568 265.07585246 76.15917969 265.89135742 C74.57642599 266.78561326 72.99307736 267.67881685 71.40917969 268.57104492 C70.61511719 269.02608398 69.82105469 269.48112305 69.00292969 269.94995117 C68.22949219 270.38436523 67.45605469 270.8187793 66.65917969 271.26635742 C65.96308594 271.66097168 65.26699219 272.05558594 64.54980469 272.4621582 C62.18438113 273.54936816 59.95959376 273.96731794 57.40917969 274.44604492 C55.73029528 275.42539416 54.0657973 276.42948412 52.40917969 277.44604492 C50.95832596 278.10851021 49.49913239 278.75287037 48.03417969 279.38354492 C45.14741668 280.63303936 42.42285835 281.95992062 39.72167969 283.57104492 C36.60165922 285.33709424 33.7944178 286.31763222 30.40917969 287.44604492 C28.81654104 288.21882089 27.23407131 289.01271521 25.65917969 289.82104492 C15.99536619 294.68906458 7.44079043 298.98291122 -3.49707031 295.52807617 C-6.58734754 294.27163451 -9.58343161 292.88928925 -12.59082031 291.44604492 C-13.67878906 290.95362305 -14.76675781 290.46120117 -15.88769531 289.95385742 C-21.79112232 287.27930012 -27.60654675 284.45985444 -33.38769531 281.53198242 C-36.40298585 280.04572219 -39.49852907 278.76313193 -42.59082031 277.44604492 C-44.63672302 276.42115982 -46.67066382 275.37761392 -48.69628906 274.31323242 C-50.55998627 273.38666461 -50.55998627 273.38666461 -52.55957031 272.97338867 C-54.94032611 272.35530784 -56.77141397 271.35664572 -58.90332031 270.13354492 C-59.68835937 269.68624023 -60.47339844 269.23893555 -61.28222656 268.77807617 C-62.0440625 268.33850586 -62.80589844 267.89893555 -63.59082031 267.44604492 C-64.56341797 266.8949707 -64.56341797 266.8949707 -65.55566406 266.33276367 C-67.23880252 265.37886244 -68.91505168 264.41283452 -70.59082031 263.44604492 C-71.56019531 262.90979492 -72.52957031 262.37354492 -73.52832031 261.82104492 C-74.54925781 261.14041992 -74.54925781 261.14041992 -75.59082031 260.44604492 C-75.59082031 259.78604492 -75.59082031 259.12604492 -75.59082031 258.44604492 C-76.58082031 258.44604492 -77.57082031 258.44604492 -78.59082031 258.44604492 C-78.59082031 257.78604492 -78.59082031 257.12604492 -78.59082031 256.44604492 C-79.56019531 256.17791992 -80.52957031 255.90979492 -81.52832031 255.63354492 C-83.04425781 255.04573242 -83.04425781 255.04573242 -84.59082031 254.44604492 C-84.92082031 253.45604492 -85.25082031 252.46604492 -85.59082031 251.44604492 C-87.46680634 250.3770045 -87.46680634 250.3770045 -89.59082031 249.44604492 C-106.15481326 237.57709381 -116.10275947 216.23996603 -119.76583862 196.70092773 C-121.83545927 183.23590323 -121.18944958 169.29162826 -121.1610539 155.70391273 C-121.15589355 152.111918 -121.16327477 148.51999061 -121.17052597 144.92800283 C-121.1874132 136.46406572 -121.18406219 128.0003095 -121.16723633 119.53637695 C-121.15021649 110.81137279 -121.16630896 102.08686536 -121.19845921 93.36191511 C-121.22510959 85.84388778 -121.23244673 78.32601556 -121.22394413 70.80794573 C-121.21901501 66.32832788 -121.22123381 61.84901069 -121.24173164 57.36943054 C-121.26002473 53.17310912 -121.25420955 48.97751106 -121.22953224 44.78122902 C-121.2245093 43.24087196 -121.22805249 41.7004602 -121.24068069 40.16014671 C-121.25653019 38.06161166 -121.2417454 35.96548497 -121.2190094 33.86706543 C-121.21842309 32.69249031 -121.21783678 31.51791519 -121.2172327 30.30774689 C-120.59082031 27.44604492 -120.59082031 27.44604492 -118.22636318 25.60894012 C-115.46162262 24.38903831 -112.72891833 23.39865979 -109.84082031 22.50854492 C-105.40893405 21.08343168 -101.22627707 19.46037443 -97.00097656 17.52026367 C-89.93997255 14.37313871 -82.83630748 11.49232067 -75.22753906 10.04370117 C-72.23677198 9.36579397 -69.34391404 8.4805384 -66.41430664 7.57836914 C-60.41737762 5.73545153 -54.74198815 4.0158078 -48.43920898 3.71557617 C-45.68991736 3.45542207 -43.06935729 2.93418779 -40.36978149 2.36805725 C-27.03851802 -0.28215932 -13.53099881 -0.04572838 0 0 Z " fill="#F4C014" transform="translate(120.5908203125,-0.446044921875)"/>
<path d="M0 0 C2.83851813 0.00912863 5.67620887 0.00239541 8.51464844 -0.02050781 C34.45693608 -0.2284924 59.29396362 1.82761505 84.18896484 9.75415039 C86.24659102 10.39537676 88.30869597 10.98354608 90.38964844 11.54370117 C100.30453561 14.21434145 109.49004094 17.87430056 118.59277344 22.60620117 C120.46946176 23.47391728 122.28755421 24.04216466 124.28417969 24.57104492 C127.40917969 25.44604492 127.40917969 25.44604492 129.40917969 27.44604492 C129.66644859 30.28398991 129.66644859 30.28398991 129.67660522 33.98805237 C129.68113634 34.66788695 129.68566745 35.34772153 129.69033587 36.04815716 C129.70304669 38.33783695 129.70135514 40.6272809 129.69970703 42.91699219 C129.70568888 44.55471098 129.71249363 46.19242694 129.72006226 47.83013916 C129.73778307 52.29177866 129.74242071 56.7533415 129.74369383 61.21501279 C129.74511469 64.0075512 129.74938348 66.80007011 129.75468826 69.59260368 C129.77322172 79.35097362 129.78135637 89.10928883 129.77978516 98.86767578 C129.77858886 107.9333537 129.79958145 116.99879155 129.83127248 126.06440884 C129.85755385 133.86338775 129.86814723 141.66228898 129.86687434 149.46131176 C129.86636737 154.11151128 129.87190001 158.76149846 129.89323044 163.41165352 C129.91280852 167.80055288 129.91260582 172.18904206 129.89819717 176.57795715 C129.89613065 178.17531888 129.90067855 179.77270756 129.91291809 181.37002373 C130.01416427 195.51859208 128.38573566 209.91322227 121.15917969 222.38354492 C120.77221924 223.08390869 120.38525879 223.78427246 119.98657227 224.50585938 C117.14270791 229.51752581 113.89269616 234.04473848 110.13183594 238.41870117 C108.58604602 240.23789611 107.29820584 242.05140166 106.03417969 244.07104492 C105.49792969 244.85479492 104.96167969 245.63854492 104.40917969 246.44604492 C103.74917969 246.44604492 103.08917969 246.44604492 102.40917969 246.44604492 C102.40917969 247.10604492 102.40917969 247.76604492 102.40917969 248.44604492 C99.77025793 250.22910017 97.43739105 251.43664113 94.40917969 252.44604492 C94.40917969 253.10604492 94.40917969 253.76604492 94.40917969 254.44604492 C87.65917969 258.44604492 87.65917969 258.44604492 85.40917969 258.44604492 C85.40917969 259.10604492 85.40917969 259.76604492 85.40917969 260.44604492 C83.47167969 261.75073242 83.47167969 261.75073242 80.40917969 263.44604492 C78.99225829 264.26070621 77.57561568 265.07585246 76.15917969 265.89135742 C74.57642599 266.78561326 72.99307736 267.67881685 71.40917969 268.57104492 C70.61511719 269.02608398 69.82105469 269.48112305 69.00292969 269.94995117 C68.22949219 270.38436523 67.45605469 270.8187793 66.65917969 271.26635742 C65.96308594 271.66097168 65.26699219 272.05558594 64.54980469 272.4621582 C62.18438113 273.54936816 59.95959376 273.96731794 57.40917969 274.44604492 C55.73029528 275.42539416 54.0657973 276.42948412 52.40917969 277.44604492 C50.95832596 278.10851021 49.49913239 278.75287037 48.03417969 279.38354492 C45.14741668 280.63303936 42.42285835 281.95992062 39.72167969 283.57104492 C36.60165922 285.33709424 33.7944178 286.31763222 30.40917969 287.44604492 C28.81654104 288.21882089 27.23407131 289.01271521 25.65917969 289.82104492 C15.99536619 294.68906458 7.44079043 298.98291122 -3.49707031 295.52807617 C-6.58734754 294.27163451 -9.58343161 292.88928925 -12.59082031 291.44604492 C-13.67878906 290.95362305 -14.76675781 290.46120117 -15.88769531 289.95385742 C-21.79112232 287.27930012 -27.60654675 284.45985444 -33.38769531 281.53198242 C-36.40298585 280.04572219 -39.49852907 278.76313193 -42.59082031 277.44604492 C-44.63672302 276.42115982 -46.67066382 275.37761392 -48.69628906 274.31323242 C-50.55998627 273.38666461 -50.55998627 273.38666461 -52.55957031 272.97338867 C-54.94032611 272.35530784 -56.77141397 271.35664572 -58.90332031 270.13354492 C-59.68835937 269.68624023 -60.47339844 269.23893555 -61.28222656 268.77807617 C-62.0440625 268.33850586 -62.80589844 267.89893555 -63.59082031 267.44604492 C-64.56341797 266.8949707 -64.56341797 266.8949707 -65.55566406 266.33276367 C-67.23880252 265.37886244 -68.91505168 264.41283452 -70.59082031 263.44604492 C-71.56019531 262.90979492 -72.52957031 262.37354492 -73.52832031 261.82104492 C-74.54925781 261.14041992 -74.54925781 261.14041992 -75.59082031 260.44604492 C-75.59082031 259.78604492 -75.59082031 259.12604492 -75.59082031 258.44604492 C-76.58082031 258.44604492 -77.57082031 258.44604492 -78.59082031 258.44604492 C-78.59082031 257.78604492 -78.59082031 257.12604492 -78.59082031 256.44604492 C-79.56019531 256.17791992 -80.52957031 255.90979492 -81.52832031 255.63354492 C-83.04425781 255.04573242 -83.04425781 255.04573242 -84.59082031 254.44604492 C-84.92082031 253.45604492 -85.25082031 252.46604492 -85.59082031 251.44604492 C-87.46680634 250.3770045 -87.46680634 250.3770045 -89.59082031 249.44604492 C-106.15481326 237.57709381 -116.10275947 216.23996603 -119.76583862 196.70092773 C-121.83545927 183.23590323 -121.18944958 169.29162826 -121.1610539 155.70391273 C-121.15589355 152.111918 -121.16327477 148.51999061 -121.17052597 144.92800283 C-121.1874132 136.46406572 -121.18406219 128.0003095 -121.16723633 119.53637695 C-121.15021649 110.81137279 -121.16630896 102.08686536 -121.19845921 93.36191511 C-121.22510959 85.84388778 -121.23244673 78.32601556 -121.22394413 70.80794573 C-121.21901501 66.32832788 -121.22123381 61.84901069 -121.24173164 57.36943054 C-121.26002473 53.17310912 -121.25420955 48.97751106 -121.22953224 44.78122902 C-121.2245093 43.24087196 -121.22805249 41.7004602 -121.24068069 40.16014671 C-121.25653019 38.06161166 -121.2417454 35.96548497 -121.2190094 33.86706543 C-121.21842309 32.69249031 -121.21783678 31.51791519 -121.2172327 30.30774689 C-120.59082031 27.44604492 -120.59082031 27.44604492 -118.22636318 25.60894012 C-115.46162262 24.38903831 -112.72891833 23.39865979 -109.84082031 22.50854492 C-105.40893405 21.08343168 -101.22627707 19.46037443 -97.00097656 17.52026367 C-89.93997255 14.37313871 -82.83630748 11.49232067 -75.22753906 10.04370117 C-72.23677198 9.36579397 -69.34391404 8.4805384 -66.41430664 7.57836914 C-60.41737762 5.73545153 -54.74198815 4.0158078 -48.43920898 3.71557617 C-45.68991736 3.45542207 -43.06935729 2.93418779 -40.36978149 2.36805725 C-27.03851802 -0.28215932 -13.53099881 -0.04572838 0 0 Z M9.40917969 88.44604492 C8.52294922 88.60121582 7.63671875 88.75638672 6.72363281 88.91625977 C-2.89019176 90.61863556 -12.34922319 92.75764149 -21.75097656 95.39135742 C-24.56734038 96.16492632 -27.37285829 96.88512701 -30.21191406 97.56323242 C-40.69956 100.10518023 -50.02546044 103.45735898 -59.59082031 108.44604492 C-60.5640625 108.94104492 -61.53730469 109.43604492 -62.54003906 109.94604492 C-68.52062724 113.08564043 -74.10590746 116.68984796 -79.66894531 120.51635742 C-82.59082031 122.44604492 -82.59082031 122.44604492 -86.07519531 124.33276367 C-89.80333404 126.43456054 -92.63143623 129.06864383 -95.59082031 132.13354492 C-96.10628418 132.6566626 -96.62174805 133.17978027 -97.15283203 133.71875 C-100.84359725 137.52133903 -104.17497064 141.50625246 -107.28613281 145.80151367 C-108.59082031 147.44604492 -108.59082031 147.44604492 -110.59082031 148.44604492 C-110.64080901 153.49567271 -110.67681415 158.54515178 -110.70068359 163.5949707 C-110.71064986 165.30756138 -110.72422778 167.02013546 -110.74169922 168.73266602 C-110.872455 181.89285123 -110.14271774 194.00916625 -105.84082031 206.57104492 C-105.45156372 207.72479614 -105.45156372 207.72479614 -105.05444336 208.90185547 C-102.94293678 214.92374768 -100.19025409 220.17292485 -96.59082031 225.44604492 C-96.12289062 226.25686523 -95.65496094 227.06768555 -95.17285156 227.90307617 C-80.4935334 251.49872093 -46.70694364 266.18724806 -21.53613281 275.86010742 C-18.60574475 277.00678101 -15.74989754 278.27001773 -12.89550781 279.59448242 C-12.09677246 279.9631543 -11.29803711 280.33182617 -10.47509766 280.71166992 C-8.92599101 281.43245024 -7.38168515 282.16367291 -5.84326172 282.90698242 C-0.59485621 285.33827273 3.86057755 286.49748259 9.62402344 284.78979492 C11.21907552 284.00854492 12.8141276 283.22729492 14.40917969 282.44604492 C13.80854641 279.26827584 12.80731757 277.38812471 10.78417969 274.88354492 C7.5396731 270.71427559 4.72724777 266.33908607 1.92480469 261.86401367 C0.78139787 260.03986723 -0.39661773 258.2373488 -1.59082031 256.44604492 C-0.98753906 256.79538086 -0.38425781 257.1447168 0.23730469 257.50463867 C1.03652344 257.95967773 1.83574219 258.4147168 2.65917969 258.88354492 C3.84253906 259.56223633 3.84253906 259.56223633 5.04980469 260.25463867 C11.95299053 263.74051894 20.87858085 263.52917989 28.26855469 261.76245117 C34.01667876 259.61136747 38.72427856 256.37193972 43.40917969 252.44604492 C43.07917969 250.79604492 42.74917969 249.14604492 42.40917969 247.44604492 C38.52044039 247.99962644 36.13313249 249.07867113 32.97167969 251.38354492 C24.43906597 257.21649561 15.80810905 257.55520295 5.72167969 255.82104492 C-1.67794838 253.91406273 -8.62700518 248.93228787 -12.59082031 242.44604492 C-13.55883062 238.47210788 -14.15024303 234.50987719 -14.59082031 230.44604492 C-13.88957031 231.16791992 -13.18832031 231.88979492 -12.46582031 232.63354492 C-5.98634406 239.040422 0.0006255 243.53526514 9.34667969 243.73901367 C11.03443176 243.71938865 12.72207022 243.68408046 14.40917969 243.63354492 C15.27929688 243.62000977 16.14941406 243.60647461 17.04589844 243.5925293 C19.16726596 243.5575617 21.28830942 243.50377022 23.40917969 243.44604492 C23.40917969 242.78604492 23.40917969 242.12604492 23.40917969 241.44604492 C24.21355469 241.40479492 25.01792969 241.36354492 25.84667969 241.32104492 C33.54428023 239.43040619 38.80904343 234.62457015 43.31542969 228.27807617 C45.61189656 224.43149415 45.51501876 221.13579105 45.47167969 216.75854492 C45.46265625 215.57905273 45.45363281 214.39956055 45.44433594 213.18432617 C45.43273437 212.28069336 45.42113281 211.37706055 45.40917969 210.44604492 C50.28417969 214.07104492 50.28417969 214.07104492 51.40917969 217.44604492 C51.50732622 219.93723475 51.5504176 222.39305435 51.53417969 224.88354492 C51.53224609 225.60582275 51.5303125 226.32810059 51.52832031 227.07226562 C51.49599871 231.12099573 51.31695866 235.10235847 50.90917969 239.13354492 C50.01404728 248.1983365 50.32607392 257.34788108 50.40917969 266.44604492 C55.4807861 264.60654833 60.15465672 262.03142732 64.90917969 259.50854492 C65.7509375 259.06575195 66.59269531 258.62295898 67.45996094 258.16674805 C73.56982409 255.03213593 73.56982409 255.03213593 79.40917969 251.44604492 C79.40917969 250.78604492 79.40917969 250.12604492 79.40917969 249.44604492 C80.29992187 249.18823242 81.19066406 248.93041992 82.10839844 248.66479492 C93.38726317 244.50029102 103.06563211 232.94229909 108.40917969 222.44604492 C108.78880859 221.80812012 109.1684375 221.17019531 109.55957031 220.51293945 C112.92462752 214.82819079 114.9458094 209.24420182 116.65917969 202.88354492 C116.91441406 201.98958008 117.16964844 201.09561523 117.43261719 200.17456055 C119.77399454 191.7517636 120.55957559 183.72417741 120.53857422 175.01660156 C120.54032654 174.10995758 120.54207886 173.2033136 120.54388428 172.26919556 C120.54825543 169.29817748 120.54538332 166.32721976 120.54199219 163.35620117 C120.54266618 161.2849476 120.543637 159.2136941 120.54489136 157.1424408 C120.54636155 152.81614422 120.54423406 148.48986837 120.53955078 144.16357422 C120.53382886 138.60595348 120.53715228 133.04838077 120.54312325 127.49076176 C120.5467259 123.22128432 120.54559208 118.9518184 120.54299545 114.68234062 C120.54232665 112.63171826 120.54315297 110.58109487 120.54547501 108.53047371 C120.54799937 105.67686281 120.54416518 102.8233315 120.53857422 99.96972656 C120.54161057 98.68954399 120.54161057 98.68954399 120.54470825 97.38349915 C120.89790967 93.60865615 120.89790967 93.60865615 119.40917969 90.44604492 C116.74408761 89.91605502 114.09006946 89.44418951 111.40917969 89.00854492 C110.69761719 88.88672852 109.98605469 88.76491211 109.25292969 88.6394043 C106.64253316 88.20806309 104.02797906 87.82319496 101.40917969 87.44604492 C100.23548828 87.27032959 99.06179687 87.09461426 97.85253906 86.91357422 C85.22520495 85.14935166 72.64049616 85.09131361 59.90917969 85.13354492 C58.80145203 85.1350354 57.69372437 85.13652588 56.5524292 85.13806152 C40.64560482 85.17659564 25.09282672 85.55456173 9.40917969 88.44604492 Z " fill="#10314E" transform="translate(120.5908203125,-0.446044921875)"/>
<path d="M0 0 C3.56663428 1.42684409 4.88973834 2.9500751 6.7265625 6.2890625 C7.2009375 7.14886719 7.6753125 8.00867188 8.1640625 8.89453125 C8.64617187 9.79558594 9.12828125 10.69664063 9.625 11.625 C10.35976562 12.94177734 10.35976562 12.94177734 11.109375 14.28515625 C20.07296159 30.76737969 18.66424111 50.10057007 13.66796875 67.77050781 C12.0412367 73.20008276 10.2497171 78.56842399 8.3671875 83.9140625 C5.48859671 92.27283651 2.99509949 101.22610333 6.125 109.875 C8.34311729 113.57186216 10.13751727 115.10662611 14 117 C18.1569298 117.50901181 21.3257606 117.04124411 25 115 C27.77133245 110.84300133 28.12538233 106.34604697 28.24609375 101.45703125 C28.27896484 100.38259766 28.31183594 99.30816406 28.34570312 98.20117188 C28.40636955 95.96167742 28.46372099 93.72209043 28.51757812 91.48242188 C29.05428155 74.50031554 29.05428155 74.50031554 34.125 68.4375 C34.93324219 67.44556641 34.93324219 67.44556641 35.7578125 66.43359375 C36.16773438 65.96050781 36.57765625 65.48742187 37 65 C37.33 65.99 37.66 66.98 38 68 C37.69835937 68.59296875 37.39671875 69.1859375 37.0859375 69.796875 C33.19754731 77.68555149 36.33560228 88.12941826 38.56347656 96.15478516 C40.63870691 103.87381346 41.68995233 112.62009535 38 120 C36.16064265 122.80527685 34.29279547 125.54521355 32 128 C31.34 128 30.68 128 30 128 C29.67 128.99 29.34 129.98 29 131 C21.92393607 135.54889824 12.48635899 135.08883125 4.4609375 133.49609375 C-3.69981732 130.73908198 -9.18535939 124.53921271 -12.9765625 117.078125 C-17.43258763 106.00052981 -15.74036631 94.27934904 -11.1875 83.58984375 C-8.03944112 76.73664302 -4.32390103 70.1437449 -0.58325195 63.59985352 C4.50304681 54.590759 7.55483256 46.59943699 7.25 36.1875 C7.24226563 35.10178711 7.24226563 35.10178711 7.234375 33.99414062 C7.17922746 30.21998112 6.89401339 26.66978078 6 23 C5.34 23 4.68 23 4 23 C3.814375 23.66 3.62875 24.32 3.4375 25 C0.48168933 31.16864836 -4.47200412 35.5857964 -9.5793457 40.02856445 C-17.42012182 46.89802232 -20.78055823 52.08271174 -21.75 62.5625 C-21.84951819 64.37418342 -21.93863362 66.18662335 -22 68 C-24 67 -24 67 -25.125 64.1875 C-27.93809129 52.60694087 -25.37240147 43.87220923 -19.33154297 33.94433594 C-16.71136292 30.11831579 -13.48718066 26.88321479 -10.23803711 23.59326172 C-3.67696278 16.84768024 -0.53118084 9.38419488 0 0 Z " fill="#FAFBFA" transform="translate(120,103)"/>
<path d="M0 0 C3.3 0 6.6 0 10 0 C10.96277259 2.35243492 11.92028498 4.70679619 12.875 7.0625 C13.14441406 7.71927734 13.41382812 8.37605469 13.69140625 9.05273438 C15.00921094 12.31510451 16.19778038 15.53954857 17.1328125 18.93359375 C17.68858901 21.85125441 17.68858901 21.85125441 19 23 C19.3556604 22.06148193 19.3556604 22.06148193 19.71850586 21.10400391 C20.7904212 18.27725731 21.86394047 15.45112254 22.9375 12.625 C23.31068359 11.64015625 23.68386719 10.6553125 24.06835938 9.640625 C24.42607422 8.69960938 24.78378906 7.75859375 25.15234375 6.7890625 C25.48226318 5.91975098 25.81218262 5.05043945 26.15209961 4.15478516 C27 2 27 2 28 0 C31.63 0 35.26 0 39 0 C39 0.66 39 1.32 39 2 C39.66 2 40.32 2 41 2 C41 1.34 41 0.68 41 0 C45.29 0 49.58 0 54 0 C54 0.66 54 1.32 54 2 C52.35 2 50.7 2 49 2 C49.05170854 6.43846476 49.14674916 10.87495857 49.25 15.3125 C49.26417969 16.57513672 49.27835938 17.83777344 49.29296875 19.13867188 C49.32519531 20.34716797 49.35742188 21.55566406 49.390625 22.80078125 C49.41157227 23.91622314 49.43251953 25.03166504 49.45410156 26.1809082 C49.73688393 29.12934615 49.73688393 29.12934615 52.03808594 30.88745117 C52.68551758 31.25459229 53.33294922 31.6217334 54 32 C44.66666667 32 35.33333333 32 26 32 C26.48895752 31.61932373 26.97791504 31.23864746 27.48168945 30.84643555 C29.563383 28.31486322 29.34450508 26.70381973 29.29296875 23.45703125 C29.28330078 22.38388672 29.27363281 21.31074219 29.26367188 20.20507812 C29.23853516 19.08552734 29.21339844 17.96597656 29.1875 16.8125 C29.17396484 15.68134766 29.16042969 14.55019531 29.14648438 13.38476562 C29.11109958 10.58936683 29.06172948 7.79492108 29 5 C28.7733667 5.64026123 28.5467334 6.28052246 28.31323242 6.94018555 C27.27688487 9.85796753 26.23228035 12.7727275 25.1875 15.6875 C24.83107422 16.69490234 24.47464844 17.70230469 24.10742188 18.74023438 C23.75615234 19.71669922 23.40488281 20.69316406 23.04296875 21.69921875 C22.72352295 22.59471436 22.40407715 23.49020996 22.07495117 24.4128418 C20.93812586 27.14891671 19.68391415 29.56102896 18 32 C17.34 32 16.68 32 16 32 C15.81824219 31.29875 15.63648437 30.5975 15.44921875 29.875 C14.11824228 24.85141703 12.71468588 19.94726543 10.8034668 15.11328125 C9.94148515 12.84609402 9.16689852 10.56088719 8.40625 8.2578125 C8.14134766 7.45746582 7.87644531 6.65711914 7.60351562 5.83251953 C7.40435547 5.22778809 7.20519531 4.62305664 7 4 C6.91285684 7.91652632 6.85956015 11.83280311 6.8125 15.75 C6.78736328 16.86117187 6.76222656 17.97234375 6.73632812 19.1171875 C6.72666016 20.18710937 6.71699219 21.25703125 6.70703125 22.359375 C6.6913208 23.34389648 6.67561035 24.32841797 6.65942383 25.34277344 C6.83804518 28.46937661 6.83804518 28.46937661 10 32 C6.7 32 3.4 32 0 32 C0 31.34 0 30.68 0 30 C0.99 29.34 1.98 28.68 3 28 C3.510605 25.28995497 3.510605 25.28995497 3.51171875 22.1171875 C3.56489258 20.36728516 3.56489258 20.36728516 3.61914062 18.58203125 C3.64169922 17.35871094 3.66425781 16.13539062 3.6875 14.875 C3.72166016 13.64394531 3.75582031 12.41289063 3.79101562 11.14453125 C3.87371564 8.0964449 3.94279427 5.04865429 4 2 C2.68 2 1.36 2 0 2 C0 1.34 0 0.68 0 0 Z " fill="#1C3C59" transform="translate(85,23)"/>
<path d="M0 0 C0.66 0 1.32 0 2 0 C5.72605449 7.55602285 5.11607308 19.02931394 3 27.125 C0.05986556 35.29358106 -4.67837995 42.89035805 -8.9375 50.4296875 C-15.94626403 63.02733665 -20.82081073 75.2571868 -17.3046875 89.89453125 C-14.7639798 96.84411407 -10.84752961 103.570614 -4.375 107.4375 C3.72794343 111.1888627 13.22696974 111.00079667 21.875 109.1875 C27.1985414 105.46102102 32.87123752 99.85212593 34.73828125 93.48046875 C35.56703799 85.62583401 35.12919229 78.75353408 33 71.125 C30.63396237 62.62339195 29.42122378 53.63785204 32 45 C24.29637195 52.96041565 25.63782691 64.76947219 25.43359375 75.11328125 C25.38912109 76.72009766 25.38912109 76.72009766 25.34375 78.359375 C25.32505859 79.32327148 25.30636719 80.28716797 25.28710938 81.28027344 C24.67304738 87.09715323 22.29139433 90.1377451 18 94 C15.13391871 95.43304064 13.18699217 95.30644155 10 95 C4.45416462 92.06396951 1.95896873 88.87690618 0 83 C-0.11740122 81.315429 -0.17506545 79.62611123 -0.1875 77.9375 C-0.20167969 77.05964844 -0.21585938 76.18179688 -0.23046875 75.27734375 C0 73 0 73 2 71 C2.03738281 71.95261719 2.07476562 72.90523438 2.11328125 73.88671875 C2.17902344 75.14097656 2.24476562 76.39523438 2.3125 77.6875 C2.37050781 78.92886719 2.42851563 80.17023438 2.48828125 81.44921875 C3.01353544 85.09392151 3.80569431 87.07967713 6 90 C9.44741547 91.72370774 13.23035339 91.50306672 17 91 C19.50160818 89.12379387 20.61945652 87.76108697 22 85 C22.11704133 83.50944429 22.17875322 82.01432861 22.2109375 80.51953125 C23.08538455 49.66248083 23.08538455 49.66248083 32.84375 39.66015625 C35 38 35 38 38 38 C37.5029737 40.58453675 36.79406919 42.36462491 35.484375 44.68359375 C31.12710929 54.41864267 34.21474097 65.67098646 37.09765625 75.38671875 C38.82731584 82.3128448 38.85225306 88.94191549 36.9375 95.8125 C31.71532321 104.40382311 25.45251829 110.81865806 15.61328125 113.45703125 C7.83234777 115.07369755 1.83877855 114.11300205 -5 110 C-12.7652741 104.5102641 -18.48220766 97.23190524 -21 88 C-22.99633408 70.85840066 -16.6979364 57.26696447 -8.1875 42.81640625 C-1.38557165 31.33112726 -1.38557165 31.33112726 1.09765625 18.55078125 C1.09282227 17.27944336 1.09282227 17.27944336 1.08789062 15.98242188 C1.07951172 15.10134766 1.07113281 14.22027344 1.0625 13.3125 C1.05798828 12.41982422 1.05347656 11.52714844 1.04882812 10.60742188 C1.03704983 8.40488013 1.02060164 6.20247401 1 4 C0.65227539 4.51151611 0.30455078 5.02303223 -0.05371094 5.55004883 C-3.81871093 11.00842256 -8.34809672 15.24322251 -13.31640625 19.60546875 C-15.9797541 21.98193488 -18.49800515 24.45523601 -21 27 C-21.66 27.66 -22.32 28.32 -23 29 C-22.51005641 24.56717701 -21.14051483 22.66868819 -17.9375 19.625 C-17.12667969 18.84511719 -16.31585938 18.06523437 -15.48046875 17.26171875 C-13.28154338 15.25671436 -11.03654579 13.34077716 -8.75 11.4375 C-5.31257559 8.52048247 -3.15086134 5.45281093 -1.0078125 1.50390625 C-0.67523438 1.00761719 -0.34265625 0.51132813 0 0 Z " fill="#AAA38B" transform="translate(124,126)"/>
<path d="M0 0 C3.31143203 1.10381068 3.62865329 1.61665995 5.5625 4.3125 C10.21765103 9.8419111 15.90809243 11.76056951 22.98046875 12.4609375 C26.65030139 12.7485812 30.32012188 12.90186992 34 13 C34 13.33 34 13.66 34 14 C29.05 14 24.1 14 19 14 C19.66 15.32 20.32 16.64 21 18 C21.33 17.67 21.66 17.34 22 17 C23.97684851 16.94285342 25.95393437 16.89005546 27.93139648 16.86108398 C36.09295986 16.69881492 41.95432519 15.91926728 48.93359375 11.27734375 C51 10 51 10 54 10 C52.87548273 12.9719385 51.77706209 15.33440687 50 18 C50.66 18.33 51.32 18.66 52 19 C42.03578459 26.04137889 34.76856686 27.96135102 22.5390625 26.7578125 C13.94842621 25.28082591 7.54694785 20.20256198 2.09375 13.61328125 C0.02378825 10.56008767 -0.11417857 7.87832139 -0.0625 4.3125 C-0.05347656 3.50425781 -0.04445313 2.69601563 -0.03515625 1.86328125 C-0.02355469 1.24839844 -0.01195313 0.63351563 0 0 Z " fill="#233C45" transform="translate(106,230)"/>
<path d="M0 0 C3.3 0 6.6 0 10 0 C10.96277259 2.35243492 11.92028498 4.70679619 12.875 7.0625 C13.14441406 7.71927734 13.41382812 8.37605469 13.69140625 9.05273438 C15.00921094 12.31510451 16.19778038 15.53954857 17.1328125 18.93359375 C17.68858901 21.85125441 17.68858901 21.85125441 19 23 C19.3556604 22.06148193 19.3556604 22.06148193 19.71850586 21.10400391 C20.7904212 18.27725731 21.86394047 15.45112254 22.9375 12.625 C23.31068359 11.64015625 23.68386719 10.6553125 24.06835938 9.640625 C24.42607422 8.69960938 24.78378906 7.75859375 25.15234375 6.7890625 C25.48226318 5.91975098 25.81218262 5.05043945 26.15209961 4.15478516 C27 2 27 2 28 0 C31.63 0 35.26 0 39 0 C39 0.66 39 1.32 39 2 C37.35 2 35.7 2 34 2 C34.08067935 6.43825599 34.19354135 10.87511798 34.3125 15.3125 C34.34633789 17.20645508 34.34633789 17.20645508 34.38085938 19.13867188 C34.41630859 20.34716797 34.45175781 21.55566406 34.48828125 22.80078125 C34.51446533 23.91622314 34.54064941 25.03166504 34.56762695 26.1809082 C34.77107966 29.36281588 34.77107966 29.36281588 38 32 C34.04 32 30.08 32 26 32 C26.99 31.01 27.98 30.02 29 29 C29.4137098 26.38845909 29.4137098 26.38845909 29.29296875 23.45703125 C29.28330078 22.38388672 29.27363281 21.31074219 29.26367188 20.20507812 C29.23853516 19.08552734 29.21339844 17.96597656 29.1875 16.8125 C29.17396484 15.68134766 29.16042969 14.55019531 29.14648438 13.38476562 C29.11109958 10.58936683 29.06172948 7.79492108 29 5 C28.7733667 5.64026123 28.5467334 6.28052246 28.31323242 6.94018555 C27.27688487 9.85796753 26.23228035 12.7727275 25.1875 15.6875 C24.83107422 16.69490234 24.47464844 17.70230469 24.10742188 18.74023438 C23.75615234 19.71669922 23.40488281 20.69316406 23.04296875 21.69921875 C22.72352295 22.59471436 22.40407715 23.49020996 22.07495117 24.4128418 C20.93812586 27.14891671 19.68391415 29.56102896 18 32 C17.34 32 16.68 32 16 32 C15.81824219 31.29875 15.63648437 30.5975 15.44921875 29.875 C14.11824228 24.85141703 12.71468588 19.94726543 10.8034668 15.11328125 C9.94148515 12.84609402 9.16689852 10.56088719 8.40625 8.2578125 C8.14134766 7.45746582 7.87644531 6.65711914 7.60351562 5.83251953 C7.40435547 5.22778809 7.20519531 4.62305664 7 4 C6.91285684 7.91652632 6.85956015 11.83280311 6.8125 15.75 C6.78736328 16.86117187 6.76222656 17.97234375 6.73632812 19.1171875 C6.72666016 20.18710937 6.71699219 21.25703125 6.70703125 22.359375 C6.6913208 23.34389648 6.67561035 24.32841797 6.65942383 25.34277344 C6.83804518 28.46937661 6.83804518 28.46937661 10 32 C6.7 32 3.4 32 0 32 C0 31.34 0 30.68 0 30 C0.99 29.34 1.98 28.68 3 28 C3.510605 25.28995497 3.510605 25.28995497 3.51171875 22.1171875 C3.56489258 20.36728516 3.56489258 20.36728516 3.61914062 18.58203125 C3.64169922 17.35871094 3.66425781 16.13539062 3.6875 14.875 C3.72166016 13.64394531 3.75582031 12.41289063 3.79101562 11.14453125 C3.87371564 8.0964449 3.94279427 5.04865429 4 2 C2.68 2 1.36 2 0 2 C0 1.34 0 0.68 0 0 Z " fill="#DAE0E4" transform="translate(85,23)"/>
<path d="M0 0 C9.1273446 2.91265092 13.11195019 13.72402079 17.421875 21.62890625 C21.20401571 29.70808306 22.52931168 36.56557608 22.4375 45.5 C22.42847656 46.56025391 22.41945312 47.62050781 22.41015625 48.71289062 C22.02450049 66.39949232 15.74979924 82.43061855 10 99 C9.67 99 9.34 99 9 99 C9.5125775 92.66154166 10.695624 87.32500046 12.875 81.375 C16.99145136 69.43163185 19.24177244 58.3208559 19.375 45.6875 C19.38901855 44.78032227 19.40303711 43.87314453 19.41748047 42.93847656 C19.3540919 34.02831893 17.27330407 26.41903218 12.5625 18.8125 C11.95148438 17.8121875 11.34046875 16.811875 10.7109375 15.78125 C10.14632812 14.8634375 9.58171875 13.945625 9 13 C8.22279415 11.60770485 7.45064336 10.21255248 6.6875 8.8125 C5.29719893 5.92490134 5.29719893 5.92490134 3 5 C3.12375 6.0725 3.2475 7.145 3.375 8.25 C3.29520111 17.31515344 -2.2724799 24.55320822 -8.375 30.75 C-15.95392035 38.52816134 -22.38765118 48.40710551 -22.625 59.5625 C-22.30361141 63.9250525 -21.49328841 67.89345687 -20 72 C-19.95101562 71.25234375 -19.90203125 70.5046875 -19.8515625 69.734375 C-19.73941406 68.25710937 -19.73941406 68.25710937 -19.625 66.75 C-19.55539063 65.77546875 -19.48578125 64.8009375 -19.4140625 63.796875 C-19.01534751 61.10366811 -18.36492937 59.33036721 -17 57 C-16.67 57 -16.34 57 -16 57 C-16.33 63.6 -16.66 70.2 -17 77 C-21.59101358 74.70449321 -22.10798669 73.59488946 -24 69 C-26.18639417 59.76855794 -25.68150685 51.32959596 -21 43 C-18.17952967 38.84822558 -15.15038457 34.90557514 -12 31 C-11.47535156 30.34386719 -10.95070313 29.68773438 -10.41015625 29.01171875 C-8.85671008 27.10886524 -7.29281763 25.27599782 -5.50390625 23.58984375 C-0.75467789 18.56923092 0.25732154 12.65135478 0.25 5.9375 C0.18649798 3.95759782 0.110051 1.97786094 0 0 Z " fill="#A9A188" transform="translate(117,98)"/>
<path d="M0 0 C3.63 0 7.26 0 11 0 C11.66 1.65 12.32 3.3 13 5 C13 4.01 13 3.02 13 2 C13.66 2 14.32 2 15 2 C15 1.34 15 0.68 15 0 C16.4370809 -0.05422947 17.87475462 -0.09289723 19.3125 -0.125 C20.11300781 -0.14820313 20.91351563 -0.17140625 21.73828125 -0.1953125 C24 0 24 0 27 2 C27.1875 4.625 27.1875 4.625 27 7 C26.01 7.33 25.02 7.66 24 8 C26.02633069 12.32371893 26.02633069 12.32371893 29 16 C26.6875 15.8125 26.6875 15.8125 24 15 C22.3125 12.5 22.3125 12.5 21 10 C20.34 9.67 19.68 9.34 19 9 C19.66 11.31 20.32 13.62 21 16 C14 16 7 16 0 16 C0.33 15.34 0.66 14.68 1 14 C1.22858114 11.9625237 1.41024278 9.91959697 1.5625 7.875 C1.64628906 6.77929688 1.73007813 5.68359375 1.81640625 4.5546875 C1.87699219 3.71164063 1.93757813 2.86859375 2 2 C1.34 2 0.68 2 0 2 C0 1.34 0 0.68 0 0 Z " fill="#10314F" transform="translate(111,62)"/>
<path d="M0 0 C1.32 0 2.64 0 4 0 C6.71999292 6.56883665 9.11605996 12.96244471 10.5625 19.9375 C11.59860464 24.85601973 12.79849621 28.13611612 16 32 C12.7 32 9.4 32 6 32 C6.66 31.34 7.32 30.68 8 30 C7.81242938 26.17435335 7.81242938 26.17435335 6 23 C3.98405418 22.76572222 1.961526 22.58663876 -0.0625 22.4375 C-1.16722656 22.35371094 -2.27195312 22.26992188 -3.41015625 22.18359375 C-4.26480469 22.12300781 -5.11945312 22.06242187 -6 22 C-6.04125 23.27875 -6.0825 24.5575 -6.125 25.875 C-6.15980469 26.95394531 -6.15980469 26.95394531 -6.1953125 28.0546875 C-6.18331689 30.23863645 -6.18331689 30.23863645 -4 32 C-6.97 32 -9.94 32 -13 32 C-13 31.34 -13 30.68 -13 30 C-12.54568604 29.58113525 -12.09137207 29.16227051 -11.62329102 28.73071289 C-9.47295689 26.43807962 -8.93117062 24.31114126 -8.02734375 21.30859375 C-7.68509766 20.19935547 -7.34285156 19.09011719 -6.99023438 17.94726562 C-6.64283203 16.78904297 -6.29542969 15.63082031 -5.9375 14.4375 C-5.24388127 12.14283105 -4.54492275 9.84976728 -3.83984375 7.55859375 C-3.53425537 6.54079834 -3.22866699 5.52300293 -2.91381836 4.47436523 C-2 2 -2 2 0 0 Z " fill="#B3BEC6" transform="translate(67,23)"/>
<path d="M0 0 C1.67542976 0.28604898 3.34385343 0.61781233 5 1 C4.67797734 4.01576776 4.45249355 5.57027965 2.21484375 7.6953125 C-0.16354973 9.18843773 -2.54527075 10.63539013 -5 12 C-5.62132812 12.34546875 -6.24265625 12.6909375 -6.8828125 13.046875 C-13.91655041 16.27447768 -22.66734887 16.19386118 -30.01953125 14.16796875 C-33.65638312 12.74624188 -36.74665761 11.16889493 -40 9 C-40 8.34 -40 7.68 -40 7 C-38.90945312 7.2165625 -38.90945312 7.2165625 -37.796875 7.4375 C-24.63337981 9.86768373 -14.92171977 10.20143246 -3.5 2.8125 C-1.17308606 1.22556349 -1.17308606 1.22556349 0 0 Z " fill="#DEB31A" transform="translate(159,247)"/>
<path d="M0 0 C3.3 0 6.6 0 10 0 C10 0.66 10 1.32 10 2 C9.01 2 8.02 2 7 2 C9.31 5.96 11.62 9.92 14 14 C16.15016583 11.13311223 17.67007588 8.88949817 19.1875 5.75 C19.53167969 5.04359375 19.87585938 4.3371875 20.23046875 3.609375 C20.61138672 2.81273437 20.61138672 2.81273437 21 2 C19.68 2 18.36 2 17 2 C17 1.34 17 0.68 17 0 C20.3 0 23.6 0 27 0 C27 0.66 27 1.32 27 2 C26.01 2.33 25.02 2.66 24 3 C17.91733675 12.07087117 15.88434252 20.12819641 16 31 C17.32 31.33 18.64 31.66 20 32 C15.71 32 11.42 32 7 32 C7.99 31.01 8.98 30.02 10 29 C11.65054156 21.42542167 9.38282236 15.78708364 5.41015625 9.41015625 C4 7 4 7 3.49609375 4.74609375 C3.25052734 3.88177734 3.25052734 3.88177734 3 3 C2.01 2.67 1.02 2.34 0 2 C0 1.34 0 0.68 0 0 Z " fill="#EDF0F1" transform="translate(171,23)"/>
<path d="M0 0 C1.5631897 0.00785522 1.5631897 0.00785522 3.15795898 0.01586914 C4.28266602 0.0190918 5.40737305 0.02231445 6.56616211 0.02563477 C7.75016602 0.03401367 8.93416992 0.04239258 10.15405273 0.05102539 C11.34192383 0.05553711 12.52979492 0.06004883 13.75366211 0.06469727 C16.69967499 0.07652864 19.64558954 0.09301252 22.59155273 0.11352539 C24.35617957 3.20162234 24.59155273 4.34664675 24.59155273 8.11352539 C23.93155273 8.11352539 23.27155273 8.11352539 22.59155273 8.11352539 C22.03467773 7.30915039 21.47780273 6.50477539 20.90405273 5.67602539 C17.92061761 2.37005674 15.90628325 2.55052371 11.59155273 2.11352539 C11.67223209 6.55178138 11.78509409 10.98864337 11.90405273 15.42602539 C11.92661133 16.68866211 11.94916992 17.95129883 11.97241211 19.25219727 C12.02558594 21.06494141 12.02558594 21.06494141 12.07983398 22.91430664 C12.10601807 24.02974854 12.13220215 25.14519043 12.15917969 26.29443359 C12.36263239 29.47634127 12.36263239 29.47634127 15.59155273 32.11352539 C11.63155273 32.11352539 7.67155273 32.11352539 3.59155273 32.11352539 C4.58155273 31.12352539 5.57155273 30.13352539 6.59155273 29.11352539 C7.0981989 26.21264884 7.0981989 26.21264884 7.10327148 22.91430664 C7.1387207 21.70581055 7.17416992 20.49731445 7.21069336 19.25219727 C7.23325195 17.98956055 7.25581055 16.72692383 7.27905273 15.42602539 C7.31321289 14.15178711 7.34737305 12.87754883 7.38256836 11.56469727 C7.46516057 8.41439436 7.53427609 5.26437383 7.59155273 2.11352539 C2.64064484 3.40810908 -0.59229662 4.64429753 -4.40844727 8.11352539 C-3.39619109 0.16008402 -3.39619109 0.16008402 0 0 Z " fill="#F5F7F7" transform="translate(145.408447265625,22.886474609375)"/>
<path d="M0 0 C0.66386719 0.33773437 1.32773438 0.67546875 2.01171875 1.0234375 C2.89472656 1.46945312 3.77773437 1.91546875 4.6875 2.375 C5.55761719 2.81585938 6.42773438 3.25671875 7.32421875 3.7109375 C9.97409844 5.04781133 9.97409844 5.04781133 12.76953125 5.9765625 C13.50558594 6.31429688 14.24164063 6.65203125 15 7 C15.33 7.99 15.66 8.98 16 10 C16.62261719 10.30164063 17.24523437 10.60328125 17.88671875 10.9140625 C20.58293647 12.29954961 21.36353222 13.7397172 22.8125 16.375 C23.25207031 17.14585937 23.69164062 17.91671875 24.14453125 18.7109375 C25.11623296 21.31101605 24.95272312 22.43992191 24 25 C21.69 25.66 19.38 26.32 17 27 C16.68546875 26.39671875 16.3709375 25.7934375 16.046875 25.171875 C13.47759367 20.26069957 13.47759367 20.26069957 10 16 C7.37469142 13.37469142 5.93556442 10.40586787 4.24609375 7.12109375 C3.09264286 4.95411716 3.09264286 4.95411716 1.34765625 3.34765625 C0.90292969 2.90292969 0.45820312 2.45820313 0 2 C0 1.34 0 0.68 0 0 Z " fill="#1C3747" transform="translate(118,255)"/>
<path d="M0 0 C4.29 0 8.58 0 13 0 C13 0.66 13 1.32 13 2 C11.35 2 9.7 2 8 2 C8.05170854 6.43846476 8.14674916 10.87495857 8.25 15.3125 C8.26417969 16.57513672 8.27835938 17.83777344 8.29296875 19.13867188 C8.32519531 20.34716797 8.35742188 21.55566406 8.390625 22.80078125 C8.41157227 23.91622314 8.43251953 25.03166504 8.45410156 26.1809082 C8.77556513 29.53098935 8.77556513 29.53098935 13 32 C8.71 32 4.42 32 0 32 C1.32 31.67 2.64 31.34 4 31 C4 21.43 4 11.86 4 2 C2.68 2 1.36 2 0 2 C0 1.34 0 0.68 0 0 Z " fill="#EFF2F3" transform="translate(126,23)"/>
<path d="M0 0 C1.32 0 2.64 0 4 0 C6.71999292 6.56883665 9.11605996 12.96244471 10.5625 19.9375 C11.59860464 24.85601973 12.79849621 28.13611612 16 32 C12.7 32 9.4 32 6 32 C6.66 31.34 7.32 30.68 8 30 C8.02308597 27.77871445 8.02308597 27.77871445 7.625 25.375 C7.41875 23.93125 7.2125 22.4875 7 21 C2.71 21 -1.58 21 -6 21 C-5.67 20.34 -5.34 19.68 -5 19 C-1.7 19.33 1.6 19.66 5 20 C4.72285156 18.97519531 4.44570312 17.95039062 4.16015625 16.89453125 C3.79418709 15.53387669 3.42830635 14.17319834 3.0625 12.8125 C2.88009766 12.13896484 2.69769531 11.46542969 2.50976562 10.77148438 C1.5511642 7.19851542 0.67116718 3.63843262 0 0 Z " fill="#EAEDEF" transform="translate(67,23)"/>
<path d="M0 0 C2.31 0 4.62 0 7 0 C6.01 0.495 6.01 0.495 5 1 C5.08067935 5.43825599 5.19354135 9.87511798 5.3125 14.3125 C5.33505859 15.57513672 5.35761719 16.83777344 5.38085938 18.13867188 C5.41630859 19.34716797 5.45175781 20.55566406 5.48828125 21.80078125 C5.51446533 22.91622314 5.54064941 24.03166504 5.56762695 25.1809082 C5.77107966 28.36281588 5.77107966 28.36281588 9 31 C5.04 31 1.08 31 -3 31 C-2.01 30.01 -1.02 29.02 0 28 C0.41513763 24.9969171 0.41513763 24.9969171 0.29296875 21.58203125 C0.28330078 20.32841797 0.27363281 19.07480469 0.26367188 17.78320312 C0.23853516 16.47287109 0.21339844 15.16253906 0.1875 13.8125 C0.17244967 12.47722837 0.15876187 11.14194063 0.14648438 9.80664062 C0.11107694 6.53735424 0.0616889 3.26887907 0 0 Z " fill="#F7F9F9" transform="translate(114,24)"/>
<path d="M0 0 C1.4370809 -0.05422947 2.87475462 -0.09289723 4.3125 -0.125 C5.11300781 -0.14820313 5.91351563 -0.17140625 6.73828125 -0.1953125 C9 0 9 0 12 2 C12.1875 4.625 12.1875 4.625 12 7 C11.01 7.33 10.02 7.66 9 8 C11.02633069 12.32371893 11.02633069 12.32371893 14 16 C11.6875 15.8125 11.6875 15.8125 9 15 C7.3125 12.5 7.3125 12.5 6 10 C5.34 9.67 4.68 9.34 4 9 C4.66 11.31 5.32 13.62 6 16 C4.02 16 2.04 16 0 16 C0.33 15.34 0.66 14.68 1 14 C1.22858114 11.9625237 1.41024278 9.91959697 1.5625 7.875 C1.64628906 6.77929688 1.73007813 5.68359375 1.81640625 4.5546875 C1.87699219 3.71164063 1.93757813 2.86859375 2 2 C1.34 2 0.68 2 0 2 C0 1.34 0 0.68 0 0 Z " fill="#5E7588" transform="translate(126,62)"/>
<path d="M0 0 C-1.2499227 3.7497681 -2.76053962 4.81524765 -6 7 C-7.32 7 -8.64 7 -10 7 C-10 7.66 -10 8.32 -10 9 C-17.09784913 10.81774185 -23.65081658 12.43230491 -31 12 C-31.33 10.35 -31.66 8.7 -32 7 C-30.82824219 6.99742187 -29.65648437 6.99484375 -28.44921875 6.9921875 C-19.51266369 6.8237528 -12.73575309 6.37823954 -5.06640625 1.27734375 C-3 0 -3 0 0 0 Z " fill="#D7AF1C" transform="translate(160,240)"/>
<path d="M0 0 C0.33 0 0.66 0 1 0 C1.05413245 2.89608593 1.09373641 5.79115195 1.125 8.6875 C1.14175781 9.50412109 1.15851563 10.32074219 1.17578125 11.16210938 C1.22511932 17.25536153 0.73609994 21.09029007 -3.5 25.75 C-6.22362824 28.20126542 -7.15751369 28.90426292 -10.75 29.3125 C-14.88596145 28.9148114 -16.80913737 27.62359816 -20 25 C-23.02785712 20.71923648 -24.14914231 17.14647393 -24.1875 11.9375 C-24.20167969 11.05964844 -24.21585937 10.18179688 -24.23046875 9.27734375 C-24 7 -24 7 -22 5 C-21.96261719 5.95261719 -21.92523438 6.90523437 -21.88671875 7.88671875 C-21.82097656 9.14097656 -21.75523438 10.39523438 -21.6875 11.6875 C-21.62949219 12.92886719 -21.57148437 14.17023438 -21.51171875 15.44921875 C-20.98646456 19.09392151 -20.19430569 21.07967713 -18 24 C-14.54722306 25.72638847 -10.7756093 25.49130032 -7 25 C-3.94934856 22.80978871 -2.35505851 20.46355205 -1 17 C-0.61604672 14.09011643 -0.49166799 11.18128336 -0.375 8.25 C-0.33632812 7.45722656 -0.29765625 6.66445312 -0.2578125 5.84765625 C-0.163892 3.89880584 -0.08087178 1.94943549 0 0 Z " fill="#AFA894" transform="translate(148,192)"/>
<path d="M0 0 C0.33 0 0.66 0 1 0 C1.57643529 13.37861958 1.38368606 25.20523259 -3.22509766 37.84960938 C-4.08471652 40.23509234 -4.87999195 42.63680798 -5.66796875 45.046875 C-7.08371997 49.37454066 -8.53291029 53.6894787 -10 58 C-10.33 58 -10.66 58 -11 58 C-10.48747357 51.66217312 -9.30614813 46.32406666 -7.125 40.375 C-2.50055448 27.06817524 -0.5350782 14.04119011 0 0 Z " fill="#ADA99B" transform="translate(137,139)"/>
<path d="M0 0 C1.65 0 3.3 0 5 0 C5 0.66 5 1.32 5 2 C4.34 2 3.68 2 3 2 C3 6.62 3 11.24 3 16 C2.34 16 1.68 16 1 16 C-0.25390625 14.57421875 -0.25390625 14.57421875 -1.5625 12.6875 C-1.99691406 12.07261719 -2.43132812 11.45773438 -2.87890625 10.82421875 C-4 9 -4 9 -5 6 C-5.020625 7.27875 -5.04125 8.5575 -5.0625 9.875 C-5.07410156 10.59429687 -5.08570312 11.31359375 -5.09765625 12.0546875 C-5.12649242 14.08185404 -5.12649242 14.08185404 -4 16 C-5.98 16 -7.96 16 -10 16 C-9.67 15.34 -9.34 14.68 -9 14 C-8.77049681 11.795636 -8.58924067 9.58607827 -8.4375 7.375 C-8.35371094 6.18648438 -8.26992187 4.99796875 -8.18359375 3.7734375 C-8.12300781 2.85820313 -8.06242187 1.94296875 -8 1 C-6.1015625 1.3203125 -6.1015625 1.3203125 -4 2 C-2.375 4.875 -2.375 4.875 -1 8 C-0.01 9.485 -0.01 9.485 1 11 C1.33 8.03 1.66 5.06 2 2 C1.34 2 0.68 2 0 2 C0 1.34 0 0.68 0 0 Z " fill="#CDD5DA" transform="translate(80,62)"/>
<path d="M0 0 C1.5631897 0.00785522 1.5631897 0.00785522 3.15795898 0.01586914 C4.28266602 0.0190918 5.40737305 0.02231445 6.56616211 0.02563477 C7.75016602 0.03401367 8.93416992 0.04239258 10.15405273 0.05102539 C11.34192383 0.05553711 12.52979492 0.06004883 13.75366211 0.06469727 C16.69967499 0.07652864 19.64558954 0.09301252 22.59155273 0.11352539 C24.35617957 3.20162234 24.59155273 4.34664675 24.59155273 8.11352539 C23.93155273 8.11352539 23.27155273 8.11352539 22.59155273 8.11352539 C21.91092773 6.90696289 21.91092773 6.90696289 21.21655273 5.67602539 C17.55476753 2.10142555 14.48524205 2.24909396 9.50170898 2.04321289 C3.47846811 2.18874086 0.04369278 4.18516653 -4.40844727 8.11352539 C-3.39619109 0.16008402 -3.39619109 0.16008402 0 0 Z " fill="#C1CAD1" transform="translate(145.408447265625,22.886474609375)"/>
<path d="M0 0 C1.65 0 3.3 0 5 0 C5 0.66 5 1.32 5 2 C4.34 2 3.68 2 3 2 C3.02320312 2.75925781 3.04640625 3.51851563 3.0703125 4.30078125 C3.09738281 5.79158203 3.09738281 5.79158203 3.125 7.3125 C3.14820312 8.29863281 3.17140625 9.28476563 3.1953125 10.30078125 C3 13 3 13 1 16 C-2.4375 16.4375 -2.4375 16.4375 -6 16 C-8.31174167 13.74631577 -8.95479117 12.43159364 -9.29296875 9.203125 C-9.25816406 8.22859375 -9.22335938 7.2540625 -9.1875 6.25 C-9.16042969 5.26515625 -9.13335937 4.2803125 -9.10546875 3.265625 C-9.07066406 2.51796875 -9.03585938 1.7703125 -9 1 C-8.01 1 -7.02 1 -6 1 C-5.67 5.29 -5.34 9.58 -5 14 C-3.35 14 -1.7 14 0 14 C0 9.38 0 4.76 0 0 Z " fill="#8B9DAB" transform="translate(64,62)"/>
<path d="M0 0 C3 2 3 2 3.73046875 4.6015625 C3.95669922 6.09816406 3.95669922 6.09816406 4.1875 7.625 C4.34605469 8.62789062 4.50460938 9.63078125 4.66796875 10.6640625 C4.77753906 11.43492188 4.88710937 12.20578125 5 13 C2.03 13 -0.94 13 -4 13 C-2.125 3.89285714 -2.125 3.89285714 0 0 Z " fill="#1B3A56" transform="translate(67,29)"/>
<path d="M0 0 C0.33 0.99 0.66 1.98 1 3 C-6.41246034 10.55739672 -13.55630825 13.28373475 -24.08984375 13.3984375 C-26.51143249 12.89332083 -27.4301273 11.86022533 -29 10 C-25.97427225 8.48713612 -23.17153594 9.02552213 -19.8125 9.125 C-14.12241763 9.19096026 -9.84685212 9.16099051 -5 6 C-3.11008617 4.09065261 -1.59753598 2.17845815 0 0 Z " fill="#B0AA96" transform="translate(154,227)"/>
<path d="M0 0 C1.98 0 3.96 0 6 0 C6.33 3.63 6.66 7.26 7 11 C8.77997029 6.55007426 9.21222719 4.56288469 9 0 C10.65 0 12.3 0 14 0 C14 0.66 14 1.32 14 2 C13.34 2 12.68 2 12 2 C11.89042969 2.59167969 11.78085938 3.18335937 11.66796875 3.79296875 C10.74085597 8.41345763 9.77648665 12.0876779 7 16 C2 6.38461538 2 6.38461538 2 2 C1.34 2 0.68 2 0 2 C0 1.34 0 0.68 0 0 Z " fill="#AEBAC4" transform="translate(95,62)"/>
<path d="M0 0 C3.3 0 6.6 0 10 0 C10 0.66 10 1.32 10 2 C9.01 2.33 8.02 2.66 7 3 C5.6291227 5.0982205 4.48476956 7.08120796 3.375 9.3125 C3.06232178 9.93463379 2.74964355 10.55676758 2.42749023 11.19775391 C-0.32213545 17.02231727 -1.08255266 22.56089283 -1 29 C-1.33 29 -1.66 29 -2 29 C-2.16820551 27.06263299 -2.33451095 25.12510094 -2.5 23.1875 C-2.5928125 22.10855469 -2.685625 21.02960937 -2.78125 19.91796875 C-3.14195486 15.10642354 -2.85843216 13.77721393 0 10 C1.40874805 7.36932711 2.71282717 4.69195537 4 2 C2.68 2 1.36 2 0 2 C0 1.34 0 0.68 0 0 Z " fill="#A7B4BE" transform="translate(188,23)"/>
<path d="M0 0 C1.98 0 3.96 0 6 0 C6 5.28 6 10.56 6 16 C4.02 16 2.04 16 0 16 C0 10.72 0 5.44 0 0 Z " fill="#92A3B0" transform="translate(87,62)"/>
<path d="M0 0 C4.59701385 7.88059518 5.55805992 18.44932471 3.46484375 27.25 C2.03059095 30.88657539 -0.06156285 33.46686452 -3 36 C-2.38722388 33.03824877 -1.74627478 31.61941217 0 29 C0.98527061 25.30835315 1.13471951 21.81004633 1.125 18 C1.12886719 16.4840625 1.12886719 16.4840625 1.1328125 14.9375 C1.00795222 12.17588438 0.5663759 9.69808994 0 7 C-0.03824623 4.66698014 -0.04574284 2.33288492 0 0 Z " fill="#ABA283" transform="translate(158,193)"/>
<path d="M0 0 C1.65 0 3.3 0 5 0 C3.87548273 2.9719385 2.77706209 5.33440687 1 8 C0.75944532 10.05709596 0.75944532 10.05709596 0.875 12.1875 C0.91625 13.445625 0.9575 14.70375 1 16 C-0.98 16 -2.96 16 -5 16 C-4.34 15.67 -3.68 15.34 -3 15 C-3.99043705 10.16371695 -4.95698846 5.52381127 -7 1 C-6.01 1 -5.02 1 -4 1 C-3.34 2.98 -2.68 4.96 -2 7 C-1.34 7 -0.68 7 0 7 C0.93423645 3.98968256 1.04449911 3.13349732 0 0 Z " fill="#8D9DAB" transform="translate(186,62)"/>
<path d="M0 0 C1.51400391 0.01740234 1.51400391 0.01740234 3.05859375 0.03515625 C4.07050781 0.04417969 5.08242187 0.05320313 6.125 0.0625 C7.29869141 0.07990234 7.29869141 0.07990234 8.49609375 0.09765625 C8.82609375 1.74765625 9.15609375 3.39765625 9.49609375 5.09765625 C7.84609375 4.10765625 6.19609375 3.11765625 4.49609375 2.09765625 C4.6368569 4.05636055 4.78386135 6.01461718 4.93359375 7.97265625 C5.01480469 9.06320313 5.09601563 10.15375 5.1796875 11.27734375 C5.32611078 14.04494596 5.32611078 14.04494596 6.49609375 16.09765625 C4.51609375 16.09765625 2.53609375 16.09765625 0.49609375 16.09765625 C0.82609375 15.43765625 1.15609375 14.77765625 1.49609375 14.09765625 C1.72467489 12.06017995 1.90633653 10.01725322 2.05859375 7.97265625 C2.14238281 6.87695312 2.22617188 5.78125 2.3125 4.65234375 C2.37308594 3.80929688 2.43367187 2.96625 2.49609375 2.09765625 C1.17609375 2.09765625 -0.14390625 2.09765625 -1.50390625 2.09765625 C-1.83390625 3.08765625 -2.16390625 4.07765625 -2.50390625 5.09765625 C-3.06640625 3.16015625 -3.06640625 3.16015625 -3.50390625 1.09765625 C-2.50390625 0.09765625 -2.50390625 0.09765625 0 0 Z " fill="#D2DADE" transform="translate(166.50390625,61.90234375)"/>
<path d="M0 0 C0.99 0.33 1.98 0.66 3 1 C2.67 2.98 2.34 4.96 2 7 C3.65 6.34 5.3 5.68 7 5 C6.67 6.32 6.34 7.64 6 9 C5.01 8.67 4.02 8.34 3 8 C3 9.98 3 11.96 3 14 C3.763125 13.690625 4.52625 13.38125 5.3125 13.0625 C7.18789677 12.32106407 9.08684652 11.63771783 11 11 C10.67 12.32 10.34 13.64 10 15 C6.04 15 2.08 15 -2 15 C-1.67 14.34 -1.34 13.68 -1 13 C-0.77049681 10.795636 -0.58924067 8.58607827 -0.4375 6.375 C-0.35371094 5.18648438 -0.26992187 3.99796875 -0.18359375 2.7734375 C-0.12300781 1.85820313 -0.06242187 0.94296875 0 0 Z " fill="#DDE3E6" transform="translate(113,63)"/>
<path d="M0 0 C0.99 0.33 1.98 0.66 3 1 C2.67 2.98 2.34 4.96 2 7 C3.65 7 5.3 7 7 7 C7.45375 7.94875 7.9075 8.8975 8.375 9.875 C9.80238254 13.00313679 9.80238254 13.00313679 12 15 C9.6875 14.8125 9.6875 14.8125 7 14 C5.3125 11.5 5.3125 11.5 4 9 C3.34 8.67 2.68 8.34 2 8 C2.66 10.31 3.32 12.62 4 15 C2.02 15 0.04 15 -2 15 C-1.67 14.34 -1.34 13.68 -1 13 C-0.77049681 10.795636 -0.58924067 8.58607827 -0.4375 6.375 C-0.35371094 5.18648438 -0.26992187 3.99796875 -0.18359375 2.7734375 C-0.12300781 1.85820313 -0.06242187 0.94296875 0 0 Z " fill="#CFD6DB" transform="translate(128,63)"/>
<path d="M0 0 C0.66 0 1.32 0 2 0 C2.81381795 1.93694678 3.62600916 3.87457711 4.4375 5.8125 C4.88996094 6.89144531 5.34242188 7.97039062 5.80859375 9.08203125 C7.48057423 13.17701295 8.12094111 16.14212984 8.09765625 20.54296875 C8.09443359 21.61611328 8.09121094 22.68925781 8.08789062 23.79492188 C8.07951172 24.91447266 8.07113281 26.03402344 8.0625 27.1875 C8.05798828 28.31865234 8.05347656 29.44980469 8.04882812 30.61523438 C8.03703498 33.41020927 8.0205765 36.2050782 8 39 C7.67 39 7.34 39 7 39 C6.97421875 37.9584375 6.9484375 36.916875 6.921875 35.84375 C6.64523852 28.07419086 5.98026961 20.67687521 4.0625 13.125 C3.89266602 12.45404297 3.72283203 11.78308594 3.54785156 11.09179688 C2.69836512 7.94950608 1.82504304 5.73756457 0 3 C0 2.01 0 1.02 0 0 Z " fill="#A99F7E" transform="translate(131,117)"/>
<path d="M0 0 C3.63 0 7.26 0 11 0 C11.33 1.32 11.66 2.64 12 4 C11.34 4 10.68 4 10 4 C10 6.31 10 8.62 10 11 C9.34 10.67 8.68 10.34 8 10 C8 9.01 8 8.02 8 7 C6.68 7.33 5.36 7.66 4 8 C4 6.02 4 4.04 4 2 C2.68 2 1.36 2 0 2 C0 1.34 0 0.68 0 0 Z " fill="#314D67" transform="translate(111,62)"/>
<path d="M0 0 C0.33 0 0.66 0 1 0 C1.02187378 1.10456543 1.02187378 1.10456543 1.04418945 2.23144531 C1.11871111 5.57149004 1.21535873 8.91053981 1.3125 12.25 C1.33505859 13.40886719 1.35761719 14.56773438 1.38085938 15.76171875 C1.41630859 16.87675781 1.45175781 17.99179687 1.48828125 19.140625 C1.51446533 20.16704102 1.54064941 21.19345703 1.56762695 22.25097656 C1.85119517 25.4521709 1.85119517 25.4521709 5 29 C1.7 29 -1.6 29 -5 29 C-5 28.34 -5 27.68 -5 27 C-4.35256836 26.57807373 -3.70513672 26.15614746 -3.03808594 25.72143555 C-0.76204248 24.15494517 -0.76204248 24.15494517 -0.45410156 21.45629883 C-0.4331543 20.46654053 -0.41220703 19.47678223 -0.390625 18.45703125 C-0.35839844 17.38388672 -0.32617188 16.31074219 -0.29296875 15.20507812 C-0.27169922 13.52575195 -0.27169922 13.52575195 -0.25 11.8125 C-0.22035156 10.68134766 -0.19070312 9.55019531 -0.16015625 8.38476562 C-0.08939691 5.58977167 -0.03673024 2.79561472 0 0 Z " fill="#EAEEEF" transform="translate(90,26)"/>
<path d="M0 0 C-0.33 0.99 -0.66 1.98 -1 3 C-2.04800781 3.02578125 -3.09601563 3.0515625 -4.17578125 3.078125 C-5.55472902 3.13440858 -6.93363365 3.19175588 -8.3125 3.25 C-9.34793945 3.27126953 -9.34793945 3.27126953 -10.40429688 3.29296875 C-14.68433517 3.49857979 -14.68433517 3.49857979 -17.98046875 6.046875 C-18.31691406 6.69140625 -18.65335937 7.3359375 -19 8 C-19.33 5.69 -19.66 3.38 -20 1 C-17.60429729 0.8312461 -15.20846637 0.66493164 -12.8125 0.5 C-12.13896484 0.45230469 -11.46542969 0.40460938 -10.77148438 0.35546875 C-7.17363248 0.10976179 -3.60627694 -0.05601984 0 0 Z " fill="#0A2C4A" transform="translate(145,243)"/>
<path d="M0 0 C3.63 0 7.26 0 11 0 C11 0.66 11 1.32 11 2 C8.03 2 5.06 2 2 2 C0.02 7.61 -1.96 13.22 -4 19 C-4.66 18.67 -5.32 18.34 -6 18 C-4.83083249 11.49265979 -2.84303828 5.9703804 0 0 Z " fill="#C1CBD2" transform="translate(113,23)"/>
<path d="M0 0 C0.66 0 1.32 0 2 0 C0.1643002 9.9127789 0.1643002 9.9127789 -3 14 C-3.66 14 -4.32 14 -5 14 C-5.2226746 12.56465159 -5.42761906 11.12654475 -5.625 9.6875 C-5.74101563 8.88699219 -5.85703125 8.08648437 -5.9765625 7.26171875 C-6 5 -6 5 -4 2 C-3.01 3.485 -3.01 3.485 -2 5 C-1.34 3.35 -0.68 1.7 0 0 Z " fill="#C7CFD5" transform="translate(106,41)"/>
<path d="M0 0 C4.62 0 9.24 0 14 0 C13.67 0.66 13.34 1.32 13 2 C9.04 1.67 5.08 1.34 1 1 C0.95875 2.27875 0.9175 3.5575 0.875 4.875 C0.84019531 5.95394531 0.84019531 5.95394531 0.8046875 7.0546875 C0.81668311 9.23863645 0.81668311 9.23863645 3 11 C0.03 11 -2.94 11 -6 11 C-6 10.34 -6 9.68 -6 9 C-5.3503125 8.38125 -5.3503125 8.38125 -4.6875 7.75 C-2.40513494 5.55759381 -2.40513494 5.55759381 0 0 Z " fill="#C4CDD4" transform="translate(60,44)"/>
<path d="M0 0 C1.65 0 3.3 0 5 0 C5.84114171 1.43294498 6.67265687 2.87154405 7.5 4.3125 C8.19609375 5.51326172 8.19609375 5.51326172 8.90625 6.73828125 C10 9 10 9 10 12 C9.01 12 8.02 12 7 12 C5.61328125 10.3203125 5.61328125 10.3203125 4.3125 8.125 C3.87550781 7.40570313 3.43851563 6.68640625 2.98828125 5.9453125 C2 4 2 4 2 2 C1.34 2 0.68 2 0 2 C0 1.34 0 0.68 0 0 Z " fill="#C0A021" transform="translate(133,267)"/>
<path d="M0 0 C0.99 0 1.98 0 3 0 C3.33 4.95 3.66 9.9 4 15 C2.35 15 0.7 15 -1 15 C-0.67 10.05 -0.34 5.1 0 0 Z " fill="#B7C2CA" transform="translate(156,63)"/>
<path d="M0 0 C-1.2499227 3.7497681 -2.76053962 4.81524765 -6 7 C-7.32 7 -8.64 7 -10 7 C-10 7.66 -10 8.32 -10 9 C-11.32 8.34 -12.64 7.68 -14 7 C-5.25 0 -5.25 0 0 0 Z " fill="#CBA720" transform="translate(160,240)"/>
<path d="M0 0 C0.99 0 1.98 0 3 0 C3.33 4.62 3.66 9.24 4 14 C3.01 13.67 2.02 13.34 1 13 C-0.32229189 10.35541621 -0.09677194 8.32238699 -0.0625 5.375 C-0.05347656 4.37210937 -0.04445312 3.36921875 -0.03515625 2.3359375 C-0.02355469 1.56507812 -0.01195312 0.79421875 0 0 Z " fill="#C4CDD4" transform="translate(55,63)"/>
<path d="M0 0 C1.65 0 3.3 0 5 0 C6.85776765 3.13498292 7.20140476 5.37471432 7 9 C6.01 9 5.02 9 4 9 C0 2.25 0 2.25 0 0 Z " fill="#CCA81E" transform="translate(143,267)"/>
<path d="M0 0 C0.66 0.33 1.32 0.66 2 1 C1.67 2.32 1.34 3.64 1 5 C1.94875 5.28875 2.8975 5.5775 3.875 5.875 C7 7 7 7 9 9 C8.625 11.625 8.625 11.625 8 14 C7.67 14 7.34 14 7 14 C7 12.35 7 10.7 7 9 C6.05125 8.896875 5.1025 8.79375 4.125 8.6875 C1 8 1 8 -1 5 C-0.625 2.3125 -0.625 2.3125 0 0 Z " fill="#C2CBD2" transform="translate(143,63)"/>
<path d="M0 0 C0.66 0 1.32 0 2 0 C4.35582065 4.62816733 4.23521469 8.75534135 4.125 13.8125 C4.11597656 14.60076172 4.10695312 15.38902344 4.09765625 16.20117188 C4.07422504 18.13424666 4.03835838 20.0671638 4 22 C3.67 22 3.34 22 3 22 C2.93941406 20.86820313 2.87882812 19.73640625 2.81640625 18.5703125 C2.73200083 17.08852855 2.64735283 15.6067584 2.5625 14.125 C2.52318359 13.37863281 2.48386719 12.63226563 2.44335938 11.86328125 C2.28426376 7.80013136 2.28426376 7.80013136 1 4 C0.67 4.66 0.34 5.32 0 6 C-0.99 5.67 -1.98 5.34 -3 5 C-1.625 2.5 -1.625 2.5 0 0 Z " fill="#AEADA8" transform="translate(124,126)"/>
<path d="M0 0 C2.64 0 5.28 0 8 0 C8.33 1.65 8.66 3.3 9 5 C8.34 4.67 7.68 4.34 7 4 C7 7.96 7 11.92 7 16 C6.34 15.67 5.68 15.34 5 15 C5 10.38 5 5.76 5 1 C3.35 1.33 1.7 1.66 0 2 C0 1.34 0 0.68 0 0 Z " fill="#33506A" transform="translate(154,62)"/>
<path d="M0 0 C0.33 0.66 0.66 1.32 1 2 C1.66 2.33 2.32 2.66 3 3 C2.98839844 3.62648438 2.97679688 4.25296875 2.96484375 4.8984375 C2.95582031 5.71570313 2.94679688 6.53296875 2.9375 7.375 C2.92589844 8.18710938 2.91429688 8.99921875 2.90234375 9.8359375 C2.85533666 12.04937142 2.85533666 12.04937142 4 14 C2.02 14 0.04 14 -2 14 C-1.67 13.34 -1.34 12.68 -1 12 C-0.77141886 9.9625237 -0.58975722 7.91959697 -0.4375 5.875 C-0.35371094 4.77929688 -0.26992187 3.68359375 -0.18359375 2.5546875 C-0.12300781 1.71164063 -0.06242187 0.86859375 0 0 Z " fill="#8E9FAD" transform="translate(72,64)"/>
<path d="M0 0 C3.3 0 6.6 0 10 0 C10 0.66 10 1.32 10 2 C9.01 2.33 8.02 2.66 7 3 C5.30117552 5.49759982 5.30117552 5.49759982 4 8 C3 5 3 5 4 2 C2.68 2 1.36 2 0 2 C0 1.34 0 0.68 0 0 Z " fill="#D6DDE1" transform="translate(188,23)"/>
<path d="M0 0 C1.51400391 0.01740234 1.51400391 0.01740234 3.05859375 0.03515625 C4.07050781 0.04417969 5.08242187 0.05320313 6.125 0.0625 C7.29869141 0.07990234 7.29869141 0.07990234 8.49609375 0.09765625 C8.82609375 1.74765625 9.15609375 3.39765625 9.49609375 5.09765625 C8.79484375 4.60265625 8.09359375 4.10765625 7.37109375 3.59765625 C4.12489656 1.90398815 2.10269219 1.8460331 -1.50390625 2.09765625 C-1.83390625 3.08765625 -2.16390625 4.07765625 -2.50390625 5.09765625 C-3.06640625 3.16015625 -3.06640625 3.16015625 -3.50390625 1.09765625 C-2.50390625 0.09765625 -2.50390625 0.09765625 0 0 Z " fill="#889AA8" transform="translate(166.50390625,61.90234375)"/>
<path d="M0 0 C0.556875 0.226875 1.11375 0.45375 1.6875 0.6875 C-10.14008621 7.6875 -10.14008621 7.6875 -14.3125 7.6875 C-14.3125 7.0275 -14.3125 6.3675 -14.3125 5.6875 C-13.260625 5.254375 -12.20875 4.82125 -11.125 4.375 C-8.74165662 3.37072829 -6.81353921 2.3625953 -4.625 0.9375 C-2.3125 -0.3125 -2.3125 -0.3125 0 0 Z " fill="#546B7E" transform="translate(178.3125,272.3125)"/>
<path d="M0 0 C1.32 0.33 2.64 0.66 4 1 C4.33 2.98 4.66 4.96 5 7 C3.68 7 2.36 7 1 7 C0.67 4.69 0.34 2.38 0 0 Z " fill="#CBA71F" transform="translate(152,265)"/>
<path d="M0 0 C1.65 0 3.3 0 5 0 C5 0.66 5 1.32 5 2 C4.34 2 3.68 2 3 2 C2.87882812 2.61488281 2.75765625 3.22976562 2.6328125 3.86328125 C2.46523437 4.67152344 2.29765625 5.47976562 2.125 6.3125 C1.88136719 7.51326172 1.88136719 7.51326172 1.6328125 8.73828125 C1 11 1 11 -1 14 C-1.0986019 9.85872031 -0.74031023 6.07170625 0 2 C0 1.34 0 0.68 0 0 Z " fill="#8598A7" transform="translate(104,62)"/>
<path d="M0 0 C3.19624262 1.53837846 6.21605574 3.28866532 9.25 5.125 C10.14203125 5.66382813 11.0340625 6.20265625 11.953125 6.7578125 C12.96632813 7.37269531 12.96632813 7.37269531 14 8 C12 9 12 9 8.6875 7.9375 C4.62502983 6.11873721 2.604014 3.55092818 0 0 Z " fill="#A69E85" transform="translate(112,229)"/>
<path d="M0 0 C0.33 0 0.66 0 1 0 C1 1.98 1 3.96 1 6 C1.763125 5.690625 2.52625 5.38125 3.3125 5.0625 C5.18789677 4.32106407 7.08684652 3.63771783 9 3 C8.67 4.32 8.34 5.64 8 7 C4.04 7 0.08 7 -4 7 C-3.34 6.34 -2.68 5.68 -2 5 C-1.34 5.33 -0.68 5.66 0 6 C0 4.02 0 2.04 0 0 Z " fill="#98A7B2" transform="translate(115,71)"/>
<path d="M0 0 C2.31 0 4.62 0 7 0 C4.42215154 2.64752004 2.08351902 4.94432065 -1 7 C-0.67 4.69 -0.34 2.38 0 0 Z " fill="#D6DCE1" transform="translate(142,24)"/>
<path d="M0 0 C0.66 0.33 1.32 0.66 2 1 C0.90344712 2.31886772 -0.20253423 3.62990057 -1.3125 4.9375 C-1.92738281 5.66839844 -2.54226562 6.39929688 -3.17578125 7.15234375 C-5 9 -5 9 -8 10 C-6.34908222 5.70761377 -3.26245434 3.1206085 0 0 Z " fill="#A8A086" transform="translate(121,132)"/>
<path d="M0 0 C0.99 0 1.98 0 3 0 C3 0.66 3 1.32 3 2 C3.99 2.33 4.98 2.66 6 3 C5.01 4.485 5.01 4.485 4 6 C2.68 6 1.36 6 0 6 C0 4.02 0 2.04 0 0 Z " fill="#1D3C59" transform="translate(116,71)"/>
<path d="M0 0 C5.45454545 -0.36363636 5.45454545 -0.36363636 7.875 1.25 C9 3 9 3 9 7 C8.34 7 7.68 7 7 7 C5.65080468 5.34614767 4.31866272 3.678298 3 2 C2.01 1.34 1.02 0.68 0 0 Z " fill="#D9DFE3" transform="translate(161,24)"/>
<path d="M0 0 C1.65 0 3.3 0 5 0 C5.45375 0.94875 5.9075 1.8975 6.375 2.875 C7.80238254 6.00313679 7.80238254 6.00313679 10 8 C7.6875 7.8125 7.6875 7.8125 5 7 C3.3125 4.5625 3.3125 4.5625 2 2 C1.34 1.34 0.68 0.68 0 0 Z " fill="#BEC8CF" transform="translate(130,70)"/>
<path d="M0 0 C1.65 0 3.3 0 5 0 C5 0.66 5 1.32 5 2 C4.34 2 3.68 2 3 2 C3 6.62 3 11.24 3 16 C2.34 15.67 1.68 15.34 1 15 C1.33 10.71 1.66 6.42 2 2 C1.34 2 0.68 2 0 2 C0 1.34 0 0.68 0 0 Z " fill="#A8B6C0" transform="translate(80,62)"/>
<path d="M0 0 C0.99 0 1.98 0 3 0 C5.03993514 4.92984325 6.40652968 8.57960425 6 14 C5.67 14 5.34 14 5 14 C4.80664062 13.40832031 4.61328125 12.81664063 4.4140625 12.20703125 C3.05585281 8.0853355 1.67949415 4.0049476 0 0 Z " fill="#DDE2E6" transform="translate(179,63)"/>
<path d="M0 0 C0.99 0.33 1.98 0.66 3 1 C2.34 4.96 1.68 8.92 1 13 C0.67 13 0.34 13 0 13 C0 8.71 0 4.42 0 0 Z " fill="#AEADA9" transform="translate(118,101)"/>
<path d="M0 0 C3.63 0 7.26 0 11 0 C11.33 1.32 11.66 2.64 12 4 C11.30132812 3.855625 10.60265625 3.71125 9.8828125 3.5625 C8.97273438 3.376875 8.06265625 3.19125 7.125 3 C6.22007813 2.814375 5.31515625 2.62875 4.3828125 2.4375 C2.07592097 1.93980405 2.07592097 1.93980405 0 2 C0 1.34 0 0.68 0 0 Z " fill="#8195A5" transform="translate(111,62)"/>
<path d="M0 0 C3 1 3 1 4.1875 3.0625 C4.455625 3.701875 4.72375 4.34125 5 5 C4.01 5.66 3.02 6.32 2 7 C0 5 0 5 -0.125 2.375 C-0.08375 1.59125 -0.0425 0.8075 0 0 Z " fill="#284660" transform="translate(130,71)"/>
<path d="M0 0 C1.9375 0.6875 1.9375 0.6875 4 2 C4.75 4.625 4.75 4.625 5 7 C4.01 7 3.02 7 2 7 C0.5393715 4.35261084 0 3.10551666 0 0 Z " fill="#DDB21B" transform="translate(138,272)"/>
<path d="M0 0 C0.66 0 1.32 0 2 0 C0.84414715 3.91211733 -0.35534962 6.8745041 -3 10 C-2.67 7.36 -2.34 4.72 -2 2 C-1.34 2 -0.68 2 0 2 C0 1.34 0 0.68 0 0 Z " fill="#536A7D" transform="translate(244,211)"/>
<path d="M0 0 C0.99 0 1.98 0 3 0 C2.30058404 3.14737182 1.23921302 6.02588876 0 9 C-1.125 5.25 -1.125 5.25 0 3 C-0.66 2.67 -1.32 2.34 -2 2 C-1.34 1.34 -0.68 0.68 0 0 Z " fill="#A59B7C" transform="translate(159,164)"/>
<path d="M0 0 C1.32 0.33 2.64 0.66 4 1 C3.34 2.98 2.68 4.96 2 7 C1.34 7 0.68 7 0 7 C0 4.69 0 2.38 0 0 Z " fill="#E7EBED" transform="translate(101,48)"/>
<path d="M0 0 C2 4 2 4 1.125 7.25 C0.75375 8.1575 0.3825 9.065 0 10 C-0.66 9.67 -1.32 9.34 -2 9 C-1.34 6.03 -0.68 3.06 0 0 Z " fill="#B6C1CA" transform="translate(109,32)"/>
<path d="M0 0 C0.33 0 0.66 0 1 0 C1 2.64 1 5.28 1 8 C0.01 8 -0.98 8 -2 8 C-1.125 1.125 -1.125 1.125 0 0 Z " fill="#1E3D59" transform="translate(113,29)"/>
<path d="M0 0 C0.33 0.99 0.66 1.98 1 3 C-0.78346291 6.03188696 -1.59575156 6.86525052 -5 8 C-3.62845496 5.04590299 -2.01136276 2.55991624 0 0 Z " fill="#E1E1E1" transform="translate(157,168)"/>
</svg>
